HIERARCHY
ROOT root
{
	OFFSET	0	13.1	24.9
	CHANNELS 6  Xposition Yposition Zposition Xrotation Yrotation Zrotation
	JOINT spine_1
	{
		OFFSET	0	9.99999	0
		CHANNELS 3  Xrotation Yrotation Zrotation
		JOINT spine_2
		{
			OFFSET	0	112	-10
			CHANNELS 3  Xrotation Yrotation Zrotation
			JOINT spine_3
			{
				OFFSET	0	206.5	19.3
				CHANNELS 3  Xrotation Yrotation Zrotation
				JOINT spine_4
				{
					OFFSET	0	110.4	14.6
					CHANNELS 3  Xrotation Yrotation Zrotation
					JOINT neck_1
					{
						OFFSET	0	71.8	-50.3
						CHANNELS 3  Xrotation Yrotation Zrotation
						JOINT neck_2
						{
							OFFSET	0	86.2	-25.8
							CHANNELS 3  Xrotation Yrotation Zrotation
							JOINT head_ee
							{
								OFFSET	0	179.8	-8.7
								CHANNELS 3  Xrotation Yrotation Zrotation
								End Site
								{
									OFFSET	1	0	0
								}
							}
						}
					}
					JOINT left_clavicle
					{
						OFFSET	-43.2	22.4	-70.8
						CHANNELS 3  Xrotation Yrotation Zrotation
						JOINT left_shoulder
						{
							OFFSET	-93.9	-5.79999	48.7
							CHANNELS 3  Xrotation Yrotation Zrotation
							JOINT left_elbow
							{
								OFFSET	-291.4	-30.8	15.2
								CHANNELS 3  Xrotation Yrotation Zrotation
								JOINT left_lowarm_twist
								{
									OFFSET	-110.7	-3.89999	13.6
									CHANNELS 3  Xrotation Yrotation Zrotation
									JOINT left_hand
									{
										OFFSET	-110.7	-3.89999	13.6
										CHANNELS 3  Xrotation Yrotation Zrotation
										JOINT left_ee
										{
											OFFSET	-80.8	-5.10001	12.1
											CHANNELS 3  Xrotation Yrotation Zrotation
											End Site
											{
												OFFSET	1	0	0
											}
										}
									}
								}
							}
						}
					}
					JOINT right_clavicle
					{
						OFFSET	43.2	22.4	-70.8
						CHANNELS 3  Xrotation Yrotation Zrotation
						JOINT right_shoulder
						{
							OFFSET	93.9	-5.79999	48.7
							CHANNELS 3  Xrotation Yrotation Zrotation
							JOINT right_elbow
							{
								OFFSET	291.4	-30.8	15.2
								CHANNELS 3  Xrotation Yrotation Zrotation
								JOINT right_lowarm_twist
								{
									OFFSET	110.7	-3.89999	13.6
									CHANNELS 3  Xrotation Yrotation Zrotation
									JOINT right_hand
									{
										OFFSET	110.7	-3.89999	13.6
										CHANNELS 3  Xrotation Yrotation Zrotation
										JOINT right_ee
										{
											OFFSET	80.8	-5.10001	12.1
											CHANNELS 3  Xrotation Yrotation Zrotation
											End Site
											{
												OFFSET	1	0	0
											}
										}
									}
								}
							}
						}
					}
				}
			}
		}
	}
	JOINT left_hip
	{
		OFFSET	-82.8	-127.5	0.300001
		CHANNELS 3  Xrotation Yrotation Zrotation
		JOINT left_knee
		{
			OFFSET	-28.2	-396.7	2.2
			CHANNELS 3  Xrotation Yrotation Zrotation
			JOINT left_ankle
			{
				OFFSET	-11.7	-411.3	35.4
				CHANNELS 3  Xrotation Yrotation Zrotation
				JOINT left_toes
				{
					OFFSET	0	-60	-88.6
					CHANNELS 3  Xrotation Yrotation Zrotation
					JOINT left_foot_ee
					{
						OFFSET	-22.5	-16.5	-42.2
						CHANNELS 3  Xrotation Yrotation Zrotation
						End Site
						{
							OFFSET	1	0	0
						}
					}
				}
			}
		}
	}
	JOINT right_hip
	{
		OFFSET	82.8	-127.5	0.300001
		CHANNELS 3  Xrotation Yrotation Zrotation
		JOINT right_knee
		{
			OFFSET	28.2	-396.7	2.2
			CHANNELS 3  Xrotation Yrotation Zrotation
			JOINT right_ankle
			{
				OFFSET	11.7	-411.3	35.4
				CHANNELS 3  Xrotation Yrotation Zrotation
				JOINT right_toes
				{
					OFFSET	0	-60	-88.6
					CHANNELS 3  Xrotation Yrotation Zrotation
					JOINT right_foot_ee
					{
						OFFSET	22.5	-16.5	-42.2
						CHANNELS 3  Xrotation Yrotation Zrotation
						End Site
						{
							OFFSET	1	0	0
						}
					}
				}
			}
		}
	}
}
MOTION
Frames: 12
Frame Time: 0.02
1041.4 574.639 -1682.42 -2.26309209053 17.9560612964 1.45312090792 3.71246 0.354331 1.86041 3.71436 0.235252 1.87918 3.72113 -0.0421414 1.89337 3.71622 0.257357 1.87628 3.83098 10.9218 -5.04279 4.64259 23.2376 -5.17343 -0.0 0.0 -0.0 -3.20245 17.7508 -2.83253 -33.4485 -21.207 69.8929 1.02475 -26.9131 0.245205 6.18562 0.176509 -0.770031 1.32332 14.4049 14.2975 -0.0 0.0 -0.0 10.61 4.0949 -21.1047 -8.37521 24.4563 -70.0503 1.10594 28.7154 -0.283096 33.1308 0.0409786 4.17365 2.59733 4.9662 -15.5927 0.0 0.0 0.0 4.78172 -57.989 -18.2655 -16.227 0.321483 2.46115 37.3927 26.8891 -4.97128 -0.885432 0.0 0.0 -0.0 0.0 -0.0 -9.19593 5.77817 3.15611 -18.9733 -0.306442 -2.8822 38.1653 18.6534 5.1297 33.4774 -0.0 -0.0 0.0 0.0 0.0 
1041.4 574.639 -1682.42 -2.2679002836 18.3269975999 1.46856311604 3.71246 0.354331 1.86041 3.71436 0.235252 1.87918 3.72113 -0.0421414 1.89337 3.71622 0.257357 1.87628 3.83098 10.9218 -5.04279 4.64259 23.2376 -5.17343 -0.0 0.0 -0.0 -3.20245 17.7508 -2.83253 -33.4485 -21.207 69.8929 1.02475 -26.9131 0.245205 6.18562 0.176509 -0.770031 1.32332 14.4049 14.2975 -0.0 0.0 -0.0 10.61 4.0949 -21.1047 -8.37521 24.4563 -70.0503 1.10594 28.7154 -0.283096 33.1308 0.0409786 4.17365 2.59733 4.9662 -15.5927 0.0 0.0 0.0 4.78172 -57.989 -18.2655 -16.227 0.321483 2.46115 37.3927 26.8891 -4.97128 -0.885432 0.0 0.0 -0.0 0.0 -0.0 -9.19593 5.77817 3.15611 -18.9733 -0.306442 -2.8822 38.1653 18.6534 5.1297 33.4774 -0.0 -0.0 0.0 0.0 0.0 
1041.4 574.639 -1682.42 -2.27561023574 18.9039768484 1.49271562346 3.71246 0.354331 1.86041 3.71436 0.235252 1.87918 3.72113 -0.0421414 1.89337 3.71622 0.257357 1.87628 3.83098 10.9218 -5.04279 4.64259 23.2376 -5.17343 -0.0 0.0 -0.0 -3.20245 17.7508 -2.83253 -33.4485 -21.207 69.8929 1.02475 -26.9131 0.245205 6.18562 0.176509 -0.770031 1.32332 14.4049 14.2975 -0.0 0.0 -0.0 10.61 4.0949 -21.1047 -8.37521 24.4563 -70.0503 1.10594 28.7154 -0.283096 33.1308 0.0409786 4.17365 2.59733 4.9662 -15.5927 0.0 0.0 0.0 4.78172 -57.989 -18.2655 -16.227 0.321483 2.46115 37.3927 26.8891 -4.97128 -0.885432 0.0 0.0 -0.0 0.0 -0.0 -9.19593 5.77817 3.15611 -18.9733 -0.306442 -2.8822 38.1653 18.6534 5.1297 33.4774 -0.0 -0.0 0.0 0.0 0.0 
1041.4 574.639 -1682.42 -2.27646563721 18.9667114383 1.49535167518 3.71246 0.354331 1.86041 3.71436 0.235252 1.87918 3.72113 -0.0421414 1.89337 3.71622 0.257357 1.87628 3.83098 10.9218 -5.04279 4.64259 23.2376 -5.17343 -0.0 0.0 -0.0 -3.20245 17.7508 -2.83253 -33.4485 -21.207 69.8929 1.02475 -26.9131 0.245205 6.18562 0.176509 -0.770031 1.32332 14.4049 14.2975 -0.0 0.0 -0.0 10.61 4.0949 -21.1047 -8.37521 24.4563 -70.0503 1.10594 28.7154 -0.283096 33.1308 0.0409786 4.17365 2.59733 4.9662 -15.5927 0.0 0.0 0.0 4.78172 -57.989 -18.2655 -16.227 0.321483 2.46115 37.3927 26.8891 -4.97128 -0.885432 0.0 0.0 -0.0 0.0 -0.0 -9.19593 5.77817 3.15611 -18.9733 -0.306442 -2.8822 38.1653 18.6534 5.1297 33.4774 -0.0 -0.0 0.0 0.0 0.0 
1041.4 574.639 -1682.42 -2.28389862157 19.5017368802 1.51791454973 3.71246 0.354331 1.86041 3.71436 0.235252 1.87918 3.72113 -0.0421414 1.89337 3.71622 0.257357 1.87628 3.83098 10.9218 -5.04279 4.64259 23.2376 -5.17343 -0.0 0.0 -0.0 -3.20245 17.7508 -2.83253 -33.4485 -21.207 69.8929 1.02475 -26.9131 0.245205 6.18562 0.176509 -0.770031 1.32332 14.4049 14.2975 -0.0 0.0 -0.0 10.61 4.0949 -21.1047 -8.37521 24.4563 -70.0503 1.10594 28.7154 -0.283096 33.1308 0.0409786 4.17365 2.59733 4.9662 -15.5927 0.0 0.0 0.0 4.78172 -57.989 -18.2655 -16.227 0.321483 2.46115 37.3927 26.8891 -4.97128 -0.885432 0.0 0.0 -0.0 0.0 -0.0 -9.19593 5.77817 3.15611 -18.9733 -0.306442 -2.8822 38.1653 18.6534 5.1297 33.4774 -0.0 -0.0 0.0 0.0 0.0 
1041.4 574.639 -1682.42 -2.29336285838 20.1584151175 1.54581311995 3.71246 0.354331 1.86041 3.71436 0.235252 1.87918 3.72113 -0.0421414 1.89337 3.71622 0.257357 1.87628 3.83098 10.9218 -5.04279 4.64259 23.2376 -5.17343 -0.0 0.0 -0.0 -3.20245 17.7508 -2.83253 -33.4485 -21.207 69.8929 1.02475 -26.9131 0.245205 6.18562 0.176509 -0.770031 1.32332 14.4049 14.2975 -0.0 0.0 -0.0 10.61 4.0949 -21.1047 -8.37521 24.4563 -70.0503 1.10594 28.7154 -0.283096 33.1308 0.0409786 4.17365 2.59733 4.9662 -15.5927 0.0 0.0 0.0 4.78172 -57.989 -18.2655 -16.227 0.321483 2.46115 37.3927 26.8891 -4.97128 -0.885432 0.0 0.0 -0.0 0.0 -0.0 -9.19593 5.77817 3.15611 -18.9733 -0.306442 -2.8822 38.1653 18.6534 5.1297 33.4774 -0.0 -0.0 0.0 0.0 0.0 
1041.4 574.639 -1682.42 -2.30490468782 20.9255754139 1.5787050367 3.71246 0.354331 1.86041 3.71436 0.235252 1.87918 3.72113 -0.0421414 1.89337 3.71622 0.257357 1.87628 3.83098 10.9218 -5.04279 4.64259 23.2376 -5.17343 -0.0 0.0 -0.0 -3.20245 17.7508 -2.83253 -33.4485 -21.207 69.8929 1.02475 -26.9131 0.245205 6.18562 0.176509 -0.770031 1.32332 14.4049 14.2975 -0.0 0.0 -0.0 10.61 4.0949 -21.1047 -8.37521 24.4563 -70.0503 1.10594 28.7154 -0.283096 33.1308 0.0409786 4.17365 2.59733 4.9662 -15.5927 0.0 0.0 0.0 4.78172 -57.989 -18.2655 -16.227 0.321483 2.46115 37.3927 26.8891 -4.97128 -0.885432 0.0 0.0 -0.0 0.0 -0.0 -9.19593 5.77817 3.15611 -18.9733 -0.306442 -2.8822 38.1653 18.6534 5.1297 33.4774 -0.0 -0.0 0.0 0.0 0.0 
1041.4 574.639 -1682.42 -2.31753147033 21.7269014121 1.61342387699 3.71246 0.354331 1.86041 3.71436 0.235252 1.87918 3.72113 -0.0421414 1.89337 3.71622 0.257357 1.87628 3.83098 10.9218 -5.04279 4.64259 23.2376 -5.17343 -0.0 0.0 -0.0 -3.20245 17.7508 -2.83253 -33.4485 -21.207 69.8929 1.02475 -26.9131 0.245205 6.18562 0.176509 -0.770031 1.32332 14.4049 14.2975 -0.0 0.0 -0.0 10.61 4.0949 -21.1047 -8.37521 24.4563 -70.0503 1.10594 28.7154 -0.283096 33.1308 0.0409786 4.17365 2.59733 4.9662 -15.5927 0.0 0.0 0.0 4.78172 -57.989 -18.2655 -16.227 0.321483 2.46115 37.3927 26.8891 -4.97128 -0.885432 0.0 0.0 -0.0 0.0 -0.0 -9.19593 5.77817 3.15611 -18.9733 -0.306442 -2.8822 38.1653 18.6534 5.1297 33.4774 -0.0 -0.0 0.0 0.0 0.0 
1018.22916847 580.205 -1700.17611067 -1.67523799434 23.1263271218 1.47889141436 3.51761 0.172728 1.79533 3.5194 0.0581554 1.80268 3.52042 -0.212506 1.79106 3.51595 0.0729779 1.80214 4.18393 12.1657 -4.63742 5.11463 25.0061 -4.74709 -0.0 0.0 -0.0 -2.97335 17.2625 -2.5741 -32.5966 -21.6403 69.305 1.0561 -27.616 0.259565 5.78315 0.167564 -0.719396 1.51709 14.8684 15.7087 -0.0 0.0 -0.0 10.4759 3.44723 -20.7969 -11.0373 24.3137 -69.5014 1.0904 28.375 -0.275668 31.6283 -0.0131636 3.98941 2.68827 4.36274 -16.4857 0.0 0.0 0.0 5.94461 -58.5294 -15.9543 -17.0269 0.319185 2.58385 35.7153 27.0191 -4.79979 0.0751388 -0.0 -0.0 -0.0 0.0 -0.0 -10.7335 4.52334 3.40372 -19.2973 -0.303338 -2.93181 38.191 15.3706 5.01453 33.5864 -0.0 -0.0 0.0 0.0 0.0 
953.389029943 595.275 -1750.25694826 -0.0971979506778 22.0477473183 1.43691372564 3.22762 -0.0973062 1.35581 3.22863 -0.183375 1.34687 3.2239 -0.389824 1.30221 3.22158 -0.179292 1.34742 1.53681 11.0052 -1.30535 1.94129 20.504 -0.532634 -0.0 0.0 -0.0 -5.00541 14.2489 -6.50393 -20.5395 -20.7028 72.0715 1.25768 -31.9222 0.359722 1.97543 0.0654014 -0.243819 0.278552 15.7747 8.17562 -0.0 0.0 -0.0 10.1192 0.312568 -19.9169 -18.0741 22.6471 -69.1556 0.907049 24.1953 -0.194419 28.7466 -0.103391 3.63243 1.45095 1.36656 -9.18529 0.0 0.0 0.0 3.40118 -56.7786 -13.8943 -13.3443 0.315549 2.01893 38.9498 27.3811 -5.147 8.21885 -0.0 -0.0 -0.0 0.0 -0.0 -8.12749 2.27771 1.98982 -28.3904 -0.102345 -4.3113 35.6642 1.17445 4.49264 34.3425 -0.0 -0.0 0.0 0.0 0.0 
945.269457255 598.592 -1757.08376666 -0.00272351334677 24.7372561238 1.73722088696 3.18988 -0.0951589 1.2787 3.19078 -0.176326 1.27005 3.18651 -0.371754 1.22717 3.18445 -0.173296 1.27047 1.46948 9.87735 1.43912 1.68689 16.2339 2.41842 -0.0 0.0 -0.0 -3.90146 9.97952 -5.5879 -18.9825 -22.2067 71.239 1.14849 -29.6358 0.303839 0.84813 0.0291101 -0.104408 -0.0833613 17.3657 6.553 -0.0 0.0 -0.0 10.0252 0.790467 -19.744 -18.8695 22.9968 -69.0147 0.817748 22.0522 -0.159343 26.5723 -0.159515 3.36037 1.63287 0.532097 -10.7609 0.0 0.0 0.0 4.99297 -53.0251 -12.5527 -12.2905 0.307828 1.85743 40.0227 27.2574 -5.24884 9.20864 -0.0 -0.0 -0.0 0.0 -0.0 -7.75152 4.54313 -0.925413 -26.9877 -0.147606 -4.10079 37.17 -5.12292 4.60431 35.1535 -0.0 -0.0 0.0 0.0 0.0 
932.47669053 599.941 -1764.43761307 -0.0594526047035 24.4195361068 2.16820636945 3.14587 -0.11525 1.25393 3.14672 -0.1948 1.24405 3.14215 -0.386888 1.19831 3.1402 -0.192797 1.24437 0.0512322 10.043 2.39351 0.228069 15.9523 3.61094 -0.0 0.0 -0.0 -4.59495 10.207 -6.75698 -16.794 -25.1366 70.4617 1.37813 -34.3189 0.425553 -0.372267 -0.0132653 0.0456912 0.510998 16.2937 9.81853 -0.0 0.0 -0.0 10.3119 0.155223 -20.309 -19.8859 22.6087 -68.4613 0.770043 20.8796 -0.141885 27.9126 -0.12614 3.52832 1.16421 0.579992 -7.56441 0.0 0.0 0.0 2.04253 -56.843 -14.2375 -12.413 0.308879 1.87621 42.4514 26.9596 -5.46886 9.41553 -0.0 -0.0 -0.0 0.0 -0.0 -4.55771 10.3162 -3.41891 -31.181 0.00297626 -4.72657 37.5682 -3.21849 4.64393 34.4956 -0.0 -0.0 0.0 0.0 0.0 
